<svg width="18" height="15" viewBox="0 0 18 15" fill="none" xmlns="http://www.w3.org/2000/svg">
<path d="M17.3979 10.1953L11.9844 1.74367C11.2738 0.634685 10.1869 0 9.00019 0C7.81346 0 6.72654 0.634685 6.01597 1.74195L0.602438 10.1953C-0.117291 11.318 -0.19604 12.5153 0.387252 13.4802C0.969628 14.4459 2.10691 15 3.50608 15H14.4943C15.8935 15 17.0308 14.4459 17.6131 13.481C18.1955 12.5162 18.1177 11.3188 17.3979 10.1953ZM9.00019 12.0401C8.21819 12.0401 7.58088 11.444 7.58088 10.7116C7.58088 9.97827 8.21728 9.38133 9.00019 9.38133C9.7831 9.38133 10.4195 9.97827 10.4195 10.7116C10.4195 11.444 9.78218 12.0401 9.00019 12.0401ZM10.4955 5.67271C10.4854 5.6993 9.21263 8.64715 9.21263 8.64715C9.17783 8.72777 9.09359 8.78095 9.00111 8.78095C8.90862 8.78095 8.82438 8.72777 8.78958 8.64715L7.51586 5.69844C7.43943 5.51972 7.39937 5.32918 7.39774 5.13666C7.39774 4.30899 8.11655 3.63571 9.00019 3.63571C9.25971 3.63634 9.5152 3.69592 9.74473 3.80936C9.97426 3.9228 10.171 4.0867 10.318 4.287C10.4651 4.48731 10.558 4.71803 10.5889 4.95938C10.6199 5.20074 10.5878 5.44551 10.4955 5.67271Z" fill="#FF0000"/>
</svg>
