<svg width="19" height="23" viewBox="0 0 19 23" fill="none" xmlns="http://www.w3.org/2000/svg">
<path d="M1.38516 7.43953C0.620197 7.43914 0.000188739 8.07598 0 8.85922L0.000943538 14.8033C0.000869142 14.9898 0.0366599 15.1745 0.10627 15.3468C0.175881 15.5191 0.277947 15.6757 0.406635 15.8075C0.535324 15.9394 0.688113 16.044 0.856271 16.1154C1.02443 16.1867 1.20466 16.2234 1.38667 16.2234C1.56866 16.2236 1.74891 16.187 1.91708 16.1157C2.08525 16.0444 2.23804 15.9398 2.3667 15.8079C2.49535 15.676 2.59735 15.5194 2.66683 15.347C2.73632 15.1747 2.77193 14.99 2.77164 14.8035V8.85844C2.77124 8.48195 2.62498 8.12102 2.365 7.85496C2.10502 7.5889 1.7526 7.43948 1.38516 7.43953ZM12.5572 2.10154L13.5241 0.292362C13.5487 0.246467 13.5546 0.192437 13.5404 0.142118C13.5262 0.0917995 13.4931 0.0492988 13.4484 0.0239349C13.4036 -0.00100205 13.351 -0.00671986 13.3021 0.00803551C13.2532 0.0227909 13.212 0.0568149 13.1876 0.102645L12.2109 1.93077C11.3891 1.55598 10.4694 1.34596 9.49623 1.34693C8.52573 1.34596 7.60638 1.5554 6.78801 1.92807L5.81015 0.104579C5.79821 0.0818176 5.78198 0.0617093 5.76241 0.0454191C5.74283 0.0291288 5.7203 0.0169805 5.69611 0.00967761C5.67192 0.00237475 5.64655 6.261e-05 5.62148 0.00287509C5.59642 0.00568758 5.57214 0.0135688 5.55007 0.0260622C5.52778 0.0382681 5.50809 0.0549055 5.49215 0.0750011C5.47622 0.0950967 5.46435 0.118247 5.45725 0.143098C5.45015 0.167948 5.44796 0.194 5.4508 0.219729C5.45365 0.245458 5.46147 0.270348 5.47381 0.292942L6.4411 2.10096C4.5405 3.10524 3.25632 5.01788 3.25745 7.21384L15.7365 7.2123C15.7369 5.01711 14.455 3.10834 12.5572 2.10154ZM6.65797 4.8974C6.51918 4.89732 6.38611 4.84076 6.28803 4.74015C6.18995 4.63954 6.13489 4.50313 6.13497 4.36093C6.13504 4.21873 6.19025 4.08238 6.28843 3.98188C6.38662 3.88138 6.51975 3.82497 6.65853 3.82504C6.79733 3.8253 6.93037 3.8819 7.02854 3.98244C7.1267 4.08299 7.18198 4.21929 7.18228 4.36151C7.18203 4.50379 7.12667 4.64016 7.02836 4.74064C6.93004 4.84112 6.79682 4.8975 6.65797 4.8974ZM12.3401 4.89643C12.2714 4.89648 12.2034 4.88266 12.1399 4.85575C12.0764 4.82884 12.0187 4.78937 11.9702 4.7396C11.9216 4.68983 11.883 4.63074 11.8567 4.56569C11.8305 4.50065 11.8169 4.43094 11.817 4.36054C11.8177 4.21846 11.8731 4.0824 11.971 3.98184C12.069 3.88128 12.2017 3.82432 12.3403 3.8233C12.4789 3.82447 12.6114 3.88154 12.7092 3.98215C12.8069 4.08275 12.862 4.21877 12.8626 4.36074C12.8627 4.43108 12.8492 4.50074 12.823 4.56574C12.7967 4.63074 12.7583 4.68981 12.7098 4.73956C12.6612 4.78932 12.6036 4.82878 12.5402 4.8557C12.4768 4.88262 12.4088 4.89646 12.3401 4.89643ZM3.30841 7.70776L3.31049 16.92C3.31021 17.1189 3.34826 17.316 3.42245 17.4999C3.49665 17.6838 3.60552 17.8508 3.74284 17.9915C3.88016 18.1322 4.04323 18.2438 4.2227 18.3198C4.40216 18.3958 4.5945 18.4347 4.78869 18.4344L5.79524 18.4348L5.79637 21.5801C5.79618 22.3634 6.41751 23 7.18077 23C7.9463 23 8.5665 22.3628 8.56668 21.5792L8.56593 18.4346L10.4361 18.434L10.4369 21.5792C10.4369 22.3618 11.0584 22.9998 11.8219 22.9983C12.5874 22.9988 13.208 22.3616 13.2078 21.578L13.2068 18.4336L14.217 18.4329C14.4112 18.4329 14.6035 18.3937 14.7829 18.3176C14.9623 18.2415 15.1253 18.1299 15.2627 17.9892C15.4 17.8485 15.509 17.6815 15.5833 17.4977C15.6576 17.3138 15.6959 17.1168 15.6959 16.9178L15.6942 7.70564L3.30841 7.70776ZM18.9991 8.85709C18.999 8.67068 18.9632 8.4861 18.8935 8.31389C18.8239 8.14168 18.7218 7.98521 18.5932 7.85341C18.4645 7.72162 18.3118 7.61708 18.1437 7.54577C17.9756 7.47446 17.7954 7.43776 17.6135 7.43779C16.8486 7.43702 16.2287 8.07347 16.2287 8.85767L16.2299 14.8021C16.2297 14.9886 16.2655 15.1732 16.3351 15.3454C16.4046 15.5177 16.5067 15.6742 16.6353 15.806C16.764 15.9378 16.9167 16.0424 17.0848 16.1137C17.2529 16.1849 17.4331 16.2216 17.615 16.2214C17.797 16.2215 17.9772 16.1847 18.1453 16.1134C18.3134 16.042 18.4661 15.9374 18.5947 15.8055C18.7234 15.6736 18.8254 15.5171 18.8949 15.3448C18.9644 15.1725 19.0001 14.9878 19 14.8014L18.9991 8.85709Z" fill="#0B4FBE"/>
</svg>
