<svg width="11" height="19" viewBox="0 0 11 19" fill="none" xmlns="http://www.w3.org/2000/svg">
<path d="M10.3887 18.0612C10.6331 17.8103 10.7677 17.4726 10.7631 17.1224C10.7585 16.7723 10.6151 16.4382 10.3642 16.1938L3.74137 9.74244L10.1928 3.11959C10.4301 2.86736 10.5588 2.53202 10.5512 2.18579C10.5437 1.83956 10.4005 1.51016 10.1524 1.26851C9.90433 1.02687 9.57128 0.892322 9.22497 0.893855C8.87867 0.895387 8.54682 1.03287 8.3009 1.2767L0.928069 8.84549C0.683737 9.09639 0.549059 9.43407 0.553651 9.78425C0.558244 10.1344 0.701731 10.4685 0.952559 10.7129L8.52135 18.0857C8.77225 18.33 9.10992 18.4647 9.46011 18.4601C9.81029 18.4555 10.1443 18.312 10.3887 18.0612Z" fill="#F8F8FF"/>
</svg>
