<svg width="25" height="31" viewBox="0 0 25 31" fill="none" xmlns="http://www.w3.org/2000/svg">
<path fill-rule="evenodd" clip-rule="evenodd" d="M12.4371 2.7638C9.87158 2.7638 7.41114 3.78295 5.59705 5.59704C3.78295 7.41114 2.7638 9.87158 2.7638 12.4371V15.2009C2.7638 15.5674 2.61821 15.9189 2.35905 16.1781C2.09989 16.4372 1.7484 16.5828 1.3819 16.5828C1.0154 16.5828 0.663906 16.4372 0.404749 16.1781C0.145593 15.9189 0 15.5674 0 15.2009V12.4371C4.91519e-08 9.13858 1.31033 5.97515 3.64274 3.64274C5.97515 1.31033 9.13858 0 12.4371 0C15.7356 0 18.8991 1.31033 21.2315 3.64274C23.5639 5.97515 24.8742 9.13858 24.8742 12.4371V16.5828C24.8565 17.8009 24.7656 19.0169 24.602 20.2241C24.3408 22.138 23.7936 24.7029 22.525 26.3943C22.3051 26.6875 21.9777 26.8813 21.6149 26.9332C21.2521 26.985 20.8835 26.8906 20.5903 26.6707C20.2971 26.4508 20.1033 26.1234 20.0514 25.7606C19.9996 25.3978 20.094 25.0292 20.3139 24.736C21.1182 23.6637 21.6074 21.7373 21.8644 19.851C22.0079 18.7671 22.09 17.676 22.1104 16.5828V12.4371C22.1104 9.87158 21.0913 7.41114 19.2772 5.59704C17.4631 3.78295 15.0026 2.7638 12.4371 2.7638ZM12.4371 8.2914C11.3376 8.2914 10.2831 8.72818 9.50565 9.50565C8.72818 10.2831 8.2914 11.3376 8.2914 12.4371V13.819C8.2914 15.118 7.8713 16.721 7.09191 18.183C6.30838 19.652 5.08954 21.1099 3.38151 21.9639C3.21862 22.0518 3.03974 22.106 2.85549 22.1234C2.67124 22.1408 2.48537 22.121 2.30892 22.0652C2.13247 22.0094 1.96902 21.9187 1.82827 21.7985C1.68753 21.6784 1.57236 21.5311 1.4896 21.3656C1.40683 21.2001 1.35816 21.0196 1.34646 20.8349C1.33477 20.6502 1.3603 20.465 1.42153 20.2904C1.48276 20.1158 1.57844 19.9552 1.70291 19.8182C1.82737 19.6813 1.97808 19.5707 2.14609 19.4931C3.20186 18.9652 4.05588 18.0048 4.65424 16.8813C5.25675 15.7537 5.5276 14.5929 5.5276 13.819V12.4371C5.5276 10.6046 6.25557 8.84713 7.55135 7.55135C8.84713 6.25557 10.6046 5.5276 12.4371 5.5276C14.2696 5.5276 16.0271 6.25557 17.3229 7.55135C18.6186 8.84713 19.3466 10.6046 19.3466 12.4371V13.9807C19.3466 18.0214 19.348 23.4467 14.7034 27.3174C14.5647 27.4387 14.4032 27.5311 14.2283 27.5891C14.0534 27.647 13.8686 27.6694 13.6849 27.655C13.5012 27.6405 13.3223 27.5894 13.1586 27.5048C12.995 27.4201 12.8499 27.3036 12.7319 27.162C12.614 27.0205 12.5255 26.8567 12.4717 26.6805C12.418 26.5042 12.4 26.319 12.4189 26.1357C12.4378 25.9524 12.4931 25.7748 12.5817 25.6132C12.6703 25.4516 12.7902 25.3093 12.9346 25.1948C16.5192 22.2071 16.5828 18.0531 16.5828 13.819V12.4371C16.5828 11.3376 16.146 10.2831 15.3686 9.50565C14.5911 8.72818 13.5366 8.2914 12.4371 8.2914ZM13.819 13.1281C13.819 12.7616 13.6734 12.4101 13.4143 12.1509C13.1551 11.8917 12.8036 11.7462 12.4371 11.7462C12.0706 11.7462 11.7191 11.8917 11.46 12.1509C11.2008 12.4101 11.0552 12.7616 11.0552 13.1281C11.0552 14.7822 10.888 16.8619 10.262 18.7372C9.64014 20.6083 8.612 22.1325 6.98274 22.9478C6.81473 23.0254 6.66403 23.136 6.53956 23.273C6.4151 23.4099 6.31941 23.5705 6.25818 23.7452C6.19695 23.9198 6.17142 24.105 6.18312 24.2897C6.19481 24.4744 6.24348 24.6548 6.32625 24.8204C6.40901 24.9859 6.52418 25.1331 6.66493 25.2533C6.80567 25.3735 6.96912 25.4641 7.14557 25.5199C7.32203 25.5757 7.50789 25.5955 7.69214 25.5781C7.87639 25.5607 8.05527 25.5065 8.21816 25.4187C10.7346 24.1611 12.1262 21.8865 12.8848 19.6105C13.6407 17.3401 13.819 14.9287 13.819 13.1281Z" fill="#F8F8FF"/>
</svg>
