<svg xmlns="http://www.w3.org/2000/svg"  viewBox="0 0 32 32" width="32px" height="32px"><path d="M 15.857422 3.015625 C 13.583363 3.0341579 11.309618 3.4941687 9.0605469 4.3945312 C 7.3131314 5.0939849 6.0588651 6.6124601 5.5742188 8.3867188 C 3.9302864 14.408984 3.979683 20.470192 5.7207031 26.490234 C 6.1731256 28.054988 7.8218378 29.052054 9.4257812 28.574219 A 1.0001 1.0001 0 0 0 9.4277344 28.574219 C 11.461092 27.967103 13.817877 26.805283 15.982422 25.089844 C 16.004472 25.072364 15.982511 25.07049 16.009766 25.09375 A 1.0001 1.0001 0 0 0 16.009766 25.095703 C 18.117576 26.890652 20.550662 28.017842 22.609375 28.597656 C 24.205007 29.047667 25.825388 28.05488 26.275391 26.505859 A 1.0001 1.0001 0 0 0 26.275391 26.503906 C 28.018455 20.482908 28.071568 14.421752 26.429688 8.3984375 C 25.909351 6.4889364 24.479412 4.9842541 22.658203 4.2851562 C 20.407376 3.4208261 18.131481 2.9970921 15.857422 3.015625 z M 15.873047 5.0019531 C 17.887483 4.985486 19.903233 5.3696739 21.941406 6.1523438 C 23.194197 6.633246 24.154336 7.6553292 24.5 8.9238281 C 26.05012 14.610514 26.000458 20.25827 24.353516 25.947266 L 24.355469 25.947266 C 24.199472 26.484245 23.648712 26.811864 23.152344 26.671875 A 1.0001 1.0001 0 0 0 23.150391 26.671875 C 21.353793 26.165883 19.148358 25.140254 17.308594 23.574219 L 17.306641 23.572266 C 16.583881 22.957185 15.489496 22.929464 14.740234 23.523438 C 12.788779 25.069999 10.620112 26.131319 8.8554688 26.658203 C 8.3519949 26.808257 7.8008041 26.483891 7.6425781 25.935547 A 1.0001 1.0001 0 0 0 7.6425781 25.933594 C 5.9975982 20.245683 5.9518386 14.599797 7.5039062 8.9140625 C 7.8332599 7.708321 8.6841029 6.7004995 9.8046875 6.2519531 C 11.844616 5.4353157 13.858606 5.0184202 15.873047 5.0019531 z"/></svg>