<svg width="17" height="17" viewBox="0 0 17 17" fill="none" xmlns="http://www.w3.org/2000/svg">
<path d="M3.95921 5.83748L7.2921 0.423336C7.38158 0.2748 7.49342 0.166963 7.62763 0.0998242C7.76184 0.0326858 7.90351 -0.000586328 8.05263 7.8177e-06C8.20175 0.000601963 8.34342 0.0341713 8.47763 0.100716C8.61184 0.16726 8.72368 0.2748 8.81315 0.423336L12.146 5.83748C12.2355 5.98602 12.2803 6.14198 12.2803 6.30537C12.2803 6.46876 12.243 6.6173 12.1684 6.75098C12.0939 6.88467 11.9895 6.9925 11.8553 7.07449C11.721 7.15649 11.5645 7.19719 11.3855 7.19659H4.71973C4.54079 7.19659 4.38421 7.15589 4.25 7.07449C4.11579 6.9931 4.0114 6.88526 3.93684 6.75098C3.86228 6.61671 3.825 6.46817 3.825 6.30537C3.825 6.14258 3.86974 5.98662 3.95921 5.83748ZM12.9737 17C11.8553 17 10.9047 16.6102 10.1222 15.8307C9.33956 15.0512 8.94796 14.1041 8.94736 12.9895C8.94677 11.8749 9.33836 10.9281 10.1222 10.1492C10.9059 9.37027 11.8565 8.98022 12.9737 8.97903C14.0909 8.97784 15.0417 9.3679 15.8261 10.1492C16.6105 10.9305 17.0018 11.8773 17 12.9895C16.9982 14.1017 16.6069 15.0488 15.8261 15.8307C15.0453 16.6126 14.0945 17.0024 12.9737 17ZM0 15.6632V10.3159C0 10.0633 0.0858948 9.85183 0.257684 9.68131C0.429474 9.51079 0.641824 9.42523 0.894736 9.42464H6.26316C6.51666 9.42464 6.72931 9.51019 6.9011 9.68131C7.07289 9.85242 7.15849 10.0639 7.15789 10.3159V15.6632C7.15789 15.9157 7.072 16.1275 6.90021 16.2986C6.72842 16.4697 6.51607 16.555 6.26316 16.5544H0.894736C0.641228 16.5544 0.428877 16.4688 0.257684 16.2977C0.0864913 16.1266 0.000596491 15.9151 0 15.6632Z" fill="#A2A2A2"/>
</svg>
