<svg width="21" height="17" viewBox="0 0 21 17" fill="none" xmlns="http://www.w3.org/2000/svg">
<path d="M9.6849 16.2C7.56925 16.2 6.51095 16.2 5.6284 15.7241C4.7449 15.2472 4.1844 14.3751 3.06245 12.628L2.4155 11.621C1.47215 10.1523 1 9.417 1 8.6C1 7.783 1.47215 7.0477 2.4155 5.579L3.0615 4.572C4.18345 2.8259 4.74395 1.95285 5.62745 1.47595C6.51095 0.99905 7.56925 1 9.6849 1H12.1901C15.8713 1 17.7124 1 18.8562 2.1134C20 3.2268 20 5.01755 20 8.6C20 12.1825 20 13.9741 18.8562 15.0866C17.7124 16.199 15.8713 16.2 12.191 16.2H9.6849Z" stroke="#F8F8FF" stroke-width="1.5"/>
<path d="M13.825 6.22498L9.07501 10.975M9.07501 6.22498L13.825 10.975" stroke="#F8F8FF" stroke-width="1.5" stroke-linecap="round"/>
</svg>
