<svg width="18" height="11" viewBox="0 0 18 11" fill="none" xmlns="http://www.w3.org/2000/svg">
<path d="M0.422667 9.78917C0.671257 10.0359 1.00765 10.1737 1.35786 10.1724C1.70807 10.1711 2.04343 10.0308 2.29019 9.78226L8.80365 3.22044L15.3655 9.7339C15.6155 9.97356 15.9496 10.1055 16.2959 10.1012C16.6421 10.0969 16.9729 9.95675 17.2168 9.71096C17.4608 9.46518 17.5985 9.13341 17.6002 8.78711C17.6019 8.44081 17.4676 8.10768 17.2261 7.85947L9.72705 0.415707C9.47845 0.169023 9.14207 0.0311721 8.79186 0.0324675C8.44164 0.0337629 8.10628 0.174099 7.85953 0.422615L0.415759 7.92165C0.169076 8.17024 0.0312243 8.50663 0.0325197 8.85684C0.033815 9.20705 0.174151 9.54241 0.422667 9.78917Z" fill="#A2A2A2"/>
</svg>
