<svg width="11" height="9" viewBox="0 0 11 9" fill="none" xmlns="http://www.w3.org/2000/svg">
<path fill-rule="evenodd" clip-rule="evenodd" d="M0 4.5C0 5.4225 0.23375 5.73244 0.70125 6.354C1.6346 7.59375 3.1999 9 5.5 9C7.8001 9 9.3654 7.59375 10.2988 6.354C10.7663 5.733 11 5.42194 11 4.5C11 3.5775 10.7663 3.26756 10.2988 2.646C9.3654 1.40625 7.8001 0 5.5 0C3.1999 0 1.6346 1.40625 0.70125 2.646C0.23375 3.26813 0 3.57806 0 4.5ZM5.5 2.39062C4.95299 2.39062 4.42839 2.61286 4.04159 3.00845C3.6548 3.40403 3.4375 3.94056 3.4375 4.5C3.4375 5.05944 3.6548 5.59597 4.04159 5.99155C4.42839 6.38714 4.95299 6.60938 5.5 6.60938C6.04701 6.60938 6.57161 6.38714 6.95841 5.99155C7.3452 5.59597 7.5625 5.05944 7.5625 4.5C7.5625 3.94056 7.3452 3.40403 6.95841 3.00845C6.57161 2.61286 6.04701 2.39062 5.5 2.39062Z" fill="#A2A2A2"/>
</svg>
