<svg width="16" height="6" viewBox="0 0 16 6" fill="none" xmlns="http://www.w3.org/2000/svg">
<path d="M8.74993 1C8.74993 0.801088 8.67091 0.610323 8.53026 0.46967C8.38961 0.329018 8.19884 0.25 7.99993 0.25C7.80102 0.25 7.61025 0.329018 7.4696 0.46967C7.32895 0.610323 7.24993 0.801088 7.24993 1V1.701L6.64293 1.351C6.55755 1.29764 6.46231 1.26202 6.36287 1.24626C6.26344 1.2305 6.16185 1.23492 6.06416 1.25925C5.96647 1.28359 5.87467 1.32734 5.79425 1.38791C5.71383 1.44848 5.64643 1.52462 5.59606 1.61179C5.54569 1.69896 5.51339 1.79538 5.50108 1.8953C5.48877 1.99522 5.4967 2.0966 5.5244 2.19339C5.55211 2.29018 5.59901 2.3804 5.66233 2.45868C5.72564 2.53695 5.80407 2.60168 5.89293 2.649L6.49993 2.999L5.89293 3.35C5.72054 3.44946 5.59472 3.61332 5.54314 3.80555C5.49157 3.99777 5.51847 4.20261 5.61793 4.375C5.71738 4.54739 5.88125 4.67321 6.07347 4.72478C6.2657 4.77636 6.47054 4.74946 6.64293 4.65L7.24993 4.299V5C7.24993 5.19891 7.32895 5.38968 7.4696 5.53033C7.61025 5.67098 7.80102 5.75 7.99993 5.75C8.19884 5.75 8.38961 5.67098 8.53026 5.53033C8.67091 5.38968 8.74993 5.19891 8.74993 5V4.3L9.35693 4.65C9.52932 4.74946 9.73416 4.77636 9.92638 4.72478C10.1186 4.67321 10.2825 4.54739 10.3819 4.375C10.4814 4.20261 10.5083 3.99777 10.4567 3.80555C10.4051 3.61332 10.2793 3.44946 10.1069 3.35L9.49993 3L10.1069 2.65C10.2793 2.55054 10.4051 2.38668 10.4567 2.19445C10.5083 2.00223 10.4814 1.79739 10.3819 1.625C10.2825 1.45261 10.1186 1.32679 9.92638 1.27522C9.73416 1.22364 9.52932 1.25054 9.35693 1.35L8.74993 1.7V1ZM2.73293 0.25C2.93184 0.25 3.12261 0.329018 3.26326 0.46967C3.40391 0.610323 3.48293 0.801088 3.48293 1V1.7L4.08893 1.35C4.26132 1.25054 4.46616 1.22364 4.65838 1.27522C4.85061 1.32679 5.01447 1.45261 5.11393 1.625C5.21339 1.79739 5.24029 2.00223 5.18871 2.19445C5.13714 2.38668 5.01132 2.55054 4.83893 2.65L4.23193 3L4.83893 3.35C4.92429 3.39925 4.99911 3.46482 5.05913 3.54298C5.11914 3.62115 5.16318 3.71037 5.18871 3.80555C5.21425 3.90073 5.22079 4 5.20796 4.09771C5.19512 4.19542 5.16317 4.28964 5.11393 4.375C5.06468 4.46036 4.99911 4.53518 4.92094 4.5952C4.84278 4.65521 4.75356 4.69925 4.65838 4.72478C4.5632 4.75032 4.46392 4.75686 4.36622 4.74403C4.26851 4.7312 4.17429 4.69925 4.08893 4.65L3.48293 4.3V5C3.48293 5.19891 3.40391 5.38968 3.26326 5.53033C3.12261 5.67098 2.93184 5.75 2.73293 5.75C2.53402 5.75 2.34325 5.67098 2.2026 5.53033C2.06195 5.38968 1.98293 5.19891 1.98293 5V4.299L1.37493 4.649C1.20333 4.74038 1.00294 4.76156 0.816031 4.70806C0.629119 4.65456 0.470285 4.53057 0.373018 4.36224C0.275751 4.1939 0.247653 3.99437 0.294649 3.80572C0.341644 3.61707 0.46006 3.45404 0.624928 3.351L1.23193 3L0.624928 2.65C0.539569 2.60075 0.464745 2.53518 0.404729 2.45702C0.344713 2.37885 0.30068 2.28963 0.275144 2.19445C0.249608 2.09927 0.243069 2 0.2559 1.90229C0.268732 1.80458 0.300683 1.71036 0.349928 1.625C0.399174 1.53964 0.46475 1.46482 0.542913 1.4048C0.621076 1.34479 0.710294 1.30075 0.805474 1.27522C0.900654 1.24968 0.999932 1.24314 1.09764 1.25597C1.19535 1.2688 1.28957 1.30075 1.37493 1.35L1.98293 1.701V1C1.98293 0.801088 2.06195 0.610323 2.2026 0.46967C2.34325 0.329018 2.53402 0.25 2.73293 0.25ZM14.0179 1C14.0179 0.801088 13.9389 0.610323 13.7983 0.46967C13.6576 0.329018 13.4668 0.25 13.2679 0.25C13.069 0.25 12.8783 0.329018 12.7376 0.46967C12.5969 0.610323 12.5179 0.801088 12.5179 1V1.701L11.9109 1.351C11.8256 1.29764 11.7303 1.26202 11.6309 1.24626C11.5314 1.2305 11.4298 1.23492 11.3322 1.25925C11.2345 1.28359 11.1427 1.32734 11.0623 1.38791C10.9818 1.44848 10.9144 1.52462 10.8641 1.61179C10.8137 1.69896 10.7814 1.79538 10.7691 1.8953C10.7568 1.99522 10.7647 2.0966 10.7924 2.19339C10.8201 2.29018 10.867 2.3804 10.9303 2.45868C10.9936 2.53695 11.0721 2.60168 11.1609 2.649L11.7679 2.999L11.1609 3.35C11.0756 3.39925 11.0007 3.46482 10.9407 3.54298C10.8807 3.62115 10.8367 3.71037 10.8111 3.80555C10.7856 3.90073 10.7791 4 10.7919 4.09771C10.8047 4.19542 10.8367 4.28964 10.8859 4.375C10.9352 4.46036 11.0008 4.53518 11.0789 4.5952C11.1571 4.65521 11.2463 4.69925 11.3415 4.72478C11.4367 4.75032 11.5359 4.75686 11.6336 4.74403C11.7313 4.7312 11.8256 4.69925 11.9109 4.65L12.5179 4.299V5C12.5179 5.19891 12.5969 5.38968 12.7376 5.53033C12.8783 5.67098 13.069 5.75 13.2679 5.75C13.4668 5.75 13.6576 5.67098 13.7983 5.53033C13.9389 5.38968 14.0179 5.19891 14.0179 5V4.3L14.6249 4.65C14.7973 4.74946 15.0022 4.77636 15.1944 4.72478C15.3866 4.67321 15.5505 4.54739 15.6499 4.375C15.7494 4.20261 15.7763 3.99777 15.7247 3.80555C15.6731 3.61332 15.5473 3.44946 15.3749 3.35L14.7679 3L15.3749 2.65C15.4603 2.60075 15.5351 2.53518 15.5951 2.45702C15.6551 2.37885 15.6992 2.28963 15.7247 2.19445C15.7502 2.09927 15.7568 2 15.744 1.90229C15.7311 1.80458 15.6992 1.71036 15.6499 1.625C15.6007 1.53964 15.5351 1.46482 15.4569 1.4048C15.3788 1.34479 15.2896 1.30075 15.1944 1.27522C15.0992 1.24968 14.9999 1.24314 14.9022 1.25597C14.8045 1.2688 14.7103 1.30075 14.6249 1.35L14.0179 1.7V1Z" fill="white"/>
</svg>
