<svg width="18" height="22" viewBox="0 0 18 22" fill="none" xmlns="http://www.w3.org/2000/svg">
<path d="M11.4918 14.5H11.5008M6.50079 14.5H6.50979M1.26879 17.845C1.49379 19.515 2.87679 20.824 4.56079 20.901C5.97679 20.966 7.41579 21 9.00079 21C10.5858 21 12.0248 20.966 13.4408 20.9C15.1248 20.824 16.5078 19.515 16.7328 17.845C16.8798 16.755 17.0008 15.638 17.0008 14.5C17.0008 13.362 16.8798 12.245 16.7328 11.155C16.5078 9.48499 15.1248 8.17599 13.4408 8.09899C11.9618 8.0314 10.4814 7.99839 9.00079 7.99999C7.41579 7.99999 5.97679 8.034 4.56079 8.1C2.87679 8.176 1.49379 9.48499 1.26879 11.155C1.12079 12.245 1.00079 13.362 1.00079 14.5C1.00079 15.638 1.12179 16.755 1.26879 17.845Z" stroke="white" stroke-width="1.5" stroke-linecap="round" stroke-linejoin="round"/>
<path d="M4.50079 8V5.5C4.50079 4.30653 4.9749 3.16193 5.81881 2.31802C6.66273 1.47411 7.80732 1 9.00079 1C10.1943 1 11.3389 1.47411 12.1828 2.31802C13.0267 3.16193 13.5008 4.30653 13.5008 5.5V8" stroke="white" stroke-width="1.5" stroke-linecap="round" stroke-linejoin="round"/>
</svg>
