<svg width="18" height="22" viewBox="0 0 18 22" fill="none" xmlns="http://www.w3.org/2000/svg">
<path d="M11.491 14.5H11.5M6.5 14.5H6.509M1.268 17.845C1.493 19.515 2.876 20.824 4.56 20.901C5.976 20.966 7.415 21 9 21C10.585 21 12.024 20.966 13.44 20.9C15.124 20.824 16.507 19.515 16.732 17.845C16.879 16.755 17 15.638 17 14.5C17 13.362 16.879 12.245 16.732 11.155C16.507 9.48499 15.124 8.17599 13.44 8.09899C11.961 8.0314 10.4806 7.99839 9 7.99999C7.415 7.99999 5.976 8.034 4.56 8.1C2.876 8.176 1.493 9.48499 1.268 11.155C1.12 12.245 1 13.362 1 14.5C1 15.638 1.121 16.755 1.268 17.845Z" stroke="black" stroke-width="1.5" stroke-linecap="round" stroke-linejoin="round"/>
<path d="M4.5 8V5.5C4.5 4.30653 4.97411 3.16193 5.81802 2.31802C6.66193 1.47411 7.80653 1 9 1C10.1935 1 11.3381 1.47411 12.182 2.31802C13.0259 3.16193 13.5 4.30653 13.5 5.5V8" stroke="black" stroke-width="1.5" stroke-linecap="round" stroke-linejoin="round"/>
</svg>
