<svg width="22" height="20" viewBox="0 0 22 20" fill="none" xmlns="http://www.w3.org/2000/svg">
<path d="M1 4L7.913 7.917C10.462 9.361 11.538 9.361 14.087 7.917L21 4" stroke="black" stroke-width="1.5" stroke-linecap="round" stroke-linejoin="round"/>
<path d="M1.016 11.476C1.081 14.541 1.11399 16.074 2.24499 17.209C3.37599 18.345 4.95 18.384 8.099 18.463C10.039 18.513 11.961 18.513 13.901 18.463C17.05 18.384 18.624 18.345 19.755 17.209C20.886 16.074 20.919 14.541 20.985 11.476C21.005 10.49 21.005 9.51002 20.985 8.52402C20.919 5.45902 20.886 3.92602 19.755 2.79102C18.624 1.65502 17.05 1.61602 13.901 1.53702C11.9673 1.48823 10.0327 1.48823 8.099 1.53702C4.95 1.61602 3.37599 1.65502 2.24499 2.79102C1.11399 3.92602 1.081 5.45902 1.015 8.52402C0.993944 9.50791 0.994944 10.4921 1.016 11.476Z" stroke="black" stroke-width="1.5" stroke-linecap="round" stroke-linejoin="round"/>
</svg>
