<svg width="16" height="22" viewBox="0 0 16 22" fill="none" xmlns="http://www.w3.org/2000/svg">
<path d="M7 18H9M1 8C1 4.7 1 3.05 2.025 2.025C3.05 1 4.7 1 8 1C11.3 1 12.95 1 13.975 2.025C15 3.05 15 4.7 15 8V14C15 17.3 15 18.95 13.975 19.975C12.95 21 11.3 21 8 21C4.7 21 3.05 21 2.025 19.975C1 18.95 1 17.3 1 14V8Z" stroke="black" stroke-width="1.5" stroke-linecap="round" stroke-linejoin="round"/>
<path d="M5 1L5.089 1.534C5.282 2.691 5.379 3.27 5.775 3.622C6.19 3.989 6.776 4 8 4C9.224 4 9.81 3.99 10.225 3.622C10.622 3.27 10.718 2.692 10.911 1.534L11 1" stroke="black" stroke-width="1.5" stroke-linecap="round" stroke-linejoin="round"/>
</svg>
