<svg width="11" height="21" viewBox="0 0 11 21" fill="none" xmlns="http://www.w3.org/2000/svg">
<path d="M10.032 8.3298C8.9282 3.46239 6.32027 1.86639 6.04005 1.25477C5.73227 0.820984 5.40086 0.000671387 5.40086 0.000671387C5.39758 0.0177339 5.39758 0.0282339 5.3943 0.0452964V0.0557964C5.3943 0.0695776 5.39102 0.0761401 5.39102 0.0899214V0.103703H5.38773V0.147671H5.38445C5.38445 0.154234 5.38445 0.164734 5.38117 0.168015V0.188359C5.38161 0.195796 5.38052 0.201484 5.37789 0.205421V0.222484C5.37833 0.233421 5.37723 0.242609 5.37461 0.250046V0.253328C5.37414 0.268405 5.37194 0.283378 5.36805 0.297953V0.304515C5.36542 0.307578 5.36433 0.311078 5.36477 0.315015V0.328796H5.36148V0.34914H5.3582V0.362921H5.35164V0.383265H5.34836V0.400328H5.34508V0.414109H5.3418V0.42789H5.33852V0.441671H5.33523V0.455453H5.33195V0.465953H5.32867V0.479734H5.32539V0.493515H5.32211C5.31883 0.493515 5.31883 0.496796 5.31883 0.496796V0.503359L5.31555 0.509921C5.31511 0.516921 5.31292 0.523703 5.30898 0.530265C5.3057 0.533546 5.3057 0.533546 5.3057 0.536828V0.54339H5.30242V0.549953H5.29586V0.567015H5.2893V0.577515H5.28602V0.580796H5.28273V0.587359H5.27945V0.597859H5.27617V0.604421H5.26961V0.614921H5.26633V0.621484H5.26305V0.628046H5.25977V0.638546H5.25648V0.645109H5.2532V0.64839H5.24992V0.654953H5.24336V0.665453H5.24008V0.668734H5.2368V0.675296H5.23352V0.685796H5.23023V0.689078H5.22695V0.69564H5.22367V0.698921H5.22039V0.709421H5.21383V0.712703H5.21055V0.719265H5.20727V0.722546H5.20398V0.729109H5.2007V0.735671C5.19742 0.735671 5.19742 0.738953 5.19742 0.738953V0.742234H5.19414L5.18364 0.759296C5.18364 0.759296 5.17708 0.765859 5.17708 0.769796C5.1738 0.769796 5.1738 0.773078 5.1738 0.773078V0.776359H5.17052V0.77964H5.16723V0.786203H5.16067V0.789484H5.15739V0.792765H5.15411V0.802609H5.15083V0.80589H5.14755V0.809171H5.14427V0.815734H5.14098V0.809171H5.13442V0.812453H5.13114V0.819015H5.12786V0.825578H5.12458V0.828859H5.1213V0.83214H5.11802V0.835421H5.11473V0.841984H5.10817V0.845265H5.10489V0.851828H5.10161V0.855109H5.09833V0.85839H5.09505V0.86889H5.09177V0.872171H5.08848V0.875453H5.0852V0.878734H5.08192V0.882015H5.07536V0.888578H5.07208V0.891859H5.0688V0.89514H5.06552V0.901703H5.06223V0.904984H5.05567V0.908265H5.05239V0.911546H5.04911V0.918109H5.04583V0.924671H5.04255V0.927953H5.03927V0.931234H5.0327V0.934515H5.02942V0.937796H5.02614V0.944359H5.02286V0.94764H5.01958V0.954203H5.0163V0.957484H5.01302V0.960765H5.00973V0.964046H5.00645V0.967328H4.99989V0.970609C4.99661 0.970609 4.99661 0.97389 4.99661 0.97389L4.99333 0.977171L4.99005 0.980453V0.987015H4.98677V0.990296H4.98348V0.993578H4.9802V0.996859H4.97692L4.97036 1.00342V1.0067C4.9638 1.00998 4.9638 1.01327 4.95658 1.02048C4.95658 1.02048 4.95002 1.02705 4.94608 1.02705C4.93558 1.03361 4.92245 1.04739 4.91195 1.05789C4.90539 1.06117 4.89817 1.06839 4.89161 1.07167C4.87805 1.0848 4.86427 1.09617 4.85027 1.1058C4.82992 1.12614 4.80892 1.13992 4.7853 1.16027H4.78202L4.62123 1.3007H4.61795C4.47095 1.43064 4.29639 1.59798 4.0982 1.79617L4.08114 1.81323C2.89136 3.0437 1.01514 5.6103 0.820235 9.75648C0.799891 10.0984 0.803172 10.4331 0.823515 10.7579V10.7645C0.919328 12.3985 1.43186 13.7931 2.07433 14.9277C2.32698 15.3792 2.60392 15.7894 2.88414 16.1582C3.84817 17.43 4.83255 18.1854 5.08192 18.3698C5.46845 19.2616 5.43367 20.7999 5.43367 20.7999L5.99739 20.9875C5.99739 20.9875 5.88123 19.5005 6.04202 18.7793C6.0932 18.5568 6.20936 18.3658 6.34652 18.2018C6.44233 18.1368 6.71598 17.9386 7.04411 17.638C7.06117 17.621 7.07167 17.6072 7.08545 17.5901C8.41502 16.3492 10.9002 13.2937 10.0491 8.31733L10.032 8.3298Z" fill="#0B4FBE"/>
</svg>
