<svg width="72" height="34" viewBox="0 0 72 34" fill="none" xmlns="http://www.w3.org/2000/svg">
<path d="M1.52475 14V3.5H3.12975L7.71975 11.165H6.87975L11.3947 3.5H12.9997L13.0147 14H11.1697L11.1547 6.395H11.5447L7.70475 12.8H6.83475L2.93475 6.395H3.38475V14H1.52475ZM18.4309 14V9.845L18.8659 11.045L14.3059 3.5H16.3909L20.0509 9.575H18.8809L22.5709 3.5H24.4909L19.9309 11.045L20.3809 9.845V14H18.4309ZM34.8334 14.15C34.0134 14.15 33.2584 14.015 32.5684 13.745C31.8784 13.475 31.2784 13.1 30.7684 12.62C30.2584 12.13 29.8634 11.56 29.5834 10.91C29.3034 10.25 29.1634 9.53 29.1634 8.75C29.1634 7.97 29.3034 7.255 29.5834 6.605C29.8634 5.945 30.2584 5.375 30.7684 4.895C31.2784 4.405 31.8784 4.025 32.5684 3.755C33.2584 3.485 34.0084 3.35 34.8184 3.35C35.6384 3.35 36.3884 3.485 37.0684 3.755C37.7584 4.025 38.3584 4.405 38.8684 4.895C39.3784 5.375 39.7734 5.945 40.0534 6.605C40.3334 7.255 40.4734 7.97 40.4734 8.75C40.4734 9.53 40.3334 10.25 40.0534 10.91C39.7734 11.57 39.3784 12.14 38.8684 12.62C38.3584 13.1 37.7584 13.475 37.0684 13.745C36.3884 14.015 35.6434 14.15 34.8334 14.15ZM34.8184 12.44C35.3484 12.44 35.8384 12.35 36.2884 12.17C36.7384 11.99 37.1284 11.735 37.4584 11.405C37.7884 11.065 38.0434 10.675 38.2234 10.235C38.4134 9.785 38.5084 9.29 38.5084 8.75C38.5084 8.21 38.4134 7.72 38.2234 7.28C38.0434 6.83 37.7884 6.44 37.4584 6.11C37.1284 5.77 36.7384 5.51 36.2884 5.33C35.8384 5.15 35.3484 5.06 34.8184 5.06C34.2884 5.06 33.7984 5.15 33.3484 5.33C32.9084 5.51 32.5184 5.77 32.1784 6.11C31.8484 6.44 31.5884 6.83 31.3984 7.28C31.2184 7.72 31.1284 8.21 31.1284 8.75C31.1284 9.28 31.2184 9.77 31.3984 10.22C31.5884 10.67 31.8484 11.065 32.1784 11.405C32.5084 11.735 32.8984 11.99 33.3484 12.17C33.7984 12.35 34.2884 12.44 34.8184 12.44ZM44.6931 14L41.2131 3.5H43.2381L46.3431 12.995H45.3381L48.5631 3.5H50.3631L53.4981 12.995H52.5231L55.7031 3.5H57.5631L54.0831 14H52.0131L49.1481 5.435H49.6881L46.7781 14H44.6931ZM59.1517 14V3.5H60.7567L67.3417 11.585H66.5467V3.5H68.4817V14H66.8767L60.2917 5.915H61.0867V14H59.1517Z" fill="white"/>
<path d="M1.67487 31V21.9H5.37987C6.35054 21.9 7.19987 22.095 7.92787 22.485C8.66454 22.8663 9.23654 23.3993 9.64387 24.084C10.0512 24.7687 10.2549 25.5573 10.2549 26.45C10.2549 27.3427 10.0512 28.1313 9.64387 28.816C9.23654 29.5007 8.66454 30.038 7.92787 30.428C7.19987 30.8093 6.35054 31 5.37987 31H1.67487ZM2.63687 30.168H5.32787C6.13387 30.168 6.83154 30.012 7.42087 29.7C8.01887 29.3793 8.48254 28.9417 8.81187 28.387C9.1412 27.8237 9.30587 27.178 9.30587 26.45C9.30587 25.7133 9.1412 25.0677 8.81187 24.513C8.48254 23.9583 8.01887 23.525 7.42087 23.213C6.83154 22.8923 6.13387 22.732 5.32787 22.732H2.63687V30.168ZM10.8322 31L14.9922 21.9H15.9412L20.1012 31H19.0872L15.2652 22.459H15.6552L11.8332 31H10.8322ZM12.4702 28.569L12.7562 27.789H18.0472L18.3332 28.569H12.4702ZM22.9175 31V22.732H19.7195V21.9H27.0775V22.732H23.8795V31H22.9175ZM26.7013 31L30.8613 21.9H31.8103L35.9703 31H34.9563L31.1343 22.459H31.5243L27.7023 31H26.7013ZM28.3393 28.569L28.6253 27.789H33.9163L34.2023 28.569H28.3393ZM37.4757 31V21.9H41.4017C42.4157 21.9 43.2 22.1037 43.7547 22.511C44.318 22.9183 44.5997 23.4947 44.5997 24.24C44.5997 24.734 44.4827 25.15 44.2487 25.488C44.0233 25.826 43.7113 26.0817 43.3127 26.255C42.9227 26.4283 42.4937 26.515 42.0257 26.515L42.2467 26.203C42.8273 26.203 43.3257 26.294 43.7417 26.476C44.1663 26.6493 44.4957 26.9137 44.7297 27.269C44.9637 27.6157 45.0807 28.049 45.0807 28.569C45.0807 29.3403 44.7947 29.9383 44.2227 30.363C43.6593 30.7877 42.8057 31 41.6617 31H37.4757ZM38.4377 30.207H41.6487C42.446 30.207 43.057 30.0727 43.4817 29.804C43.9063 29.5267 44.1187 29.089 44.1187 28.491C44.1187 27.9017 43.9063 27.4727 43.4817 27.204C43.057 26.9267 42.446 26.788 41.6487 26.788H38.3337V25.995H41.3367C42.0647 25.995 42.628 25.8563 43.0267 25.579C43.434 25.3017 43.6377 24.89 43.6377 24.344C43.6377 23.7893 43.434 23.3777 43.0267 23.109C42.628 22.8317 42.0647 22.693 41.3367 22.693H38.4377V30.207ZM45.8204 31L49.9804 21.9H50.9294L55.0894 31H54.0754L50.2534 22.459H50.6434L46.8214 31H45.8204ZM47.4584 28.569L47.7444 27.789H53.0354L53.3214 28.569H47.4584ZM59.1038 31.078C58.4278 31.078 57.7778 30.9697 57.1538 30.753C56.5385 30.5277 56.0618 30.2417 55.7238 29.895L56.1008 29.154C56.4215 29.466 56.8505 29.7303 57.3878 29.947C57.9338 30.155 58.5058 30.259 59.1038 30.259C59.6758 30.259 60.1395 30.1897 60.4948 30.051C60.8588 29.9037 61.1231 29.7087 61.2878 29.466C61.4611 29.2233 61.5478 28.9547 61.5478 28.66C61.5478 28.3047 61.4438 28.0187 61.2358 27.802C61.0365 27.5853 60.7721 27.4163 60.4428 27.295C60.1135 27.165 59.7495 27.0523 59.3508 26.957C58.9521 26.8617 58.5535 26.762 58.1548 26.658C57.7561 26.5453 57.3878 26.398 57.0498 26.216C56.7205 26.034 56.4518 25.7957 56.2438 25.501C56.0445 25.1977 55.9448 24.8033 55.9448 24.318C55.9448 23.8673 56.0618 23.4557 56.2958 23.083C56.5385 22.7017 56.9068 22.3983 57.4008 22.173C57.8948 21.939 58.5275 21.822 59.2988 21.822C59.8101 21.822 60.3171 21.8957 60.8198 22.043C61.3225 22.1817 61.7558 22.3767 62.1198 22.628L61.7948 23.395C61.4048 23.135 60.9888 22.9443 60.5468 22.823C60.1135 22.7017 59.6931 22.641 59.2858 22.641C58.7398 22.641 58.2891 22.7147 57.9338 22.862C57.5785 23.0093 57.3141 23.2087 57.1408 23.46C56.9761 23.7027 56.8938 23.98 56.8938 24.292C56.8938 24.6473 56.9935 24.9333 57.1928 25.15C57.4008 25.3667 57.6695 25.5357 57.9988 25.657C58.3368 25.7783 58.7051 25.8867 59.1038 25.982C59.5025 26.0773 59.8968 26.1813 60.2868 26.294C60.6855 26.4067 61.0495 26.554 61.3788 26.736C61.7168 26.9093 61.9855 27.1433 62.1848 27.438C62.3928 27.7327 62.4968 28.1183 62.4968 28.595C62.4968 29.037 62.3755 29.4487 62.1328 29.83C61.8901 30.2027 61.5175 30.506 61.0148 30.74C60.5208 30.9653 59.8838 31.078 59.1038 31.078ZM65.4508 25.969H70.2608V26.788H65.4508V25.969ZM65.5548 30.168H71.0278V31H64.5928V21.9H70.8328V22.732H65.5548V30.168Z" fill="white"/>
</svg>
