<svg width="87" height="34" viewBox="0 0 87 34" fill="none" xmlns="http://www.w3.org/2000/svg">
<path d="M1.60922 14V3.5H3.21422L9.79922 11.585H9.00422V3.5H10.9392V14H9.33422L2.74922 5.915H3.54422V14H1.60922ZM15.5528 7.865H20.7728V9.47H15.5528V7.865ZM15.7028 12.365H21.6278V14H13.7528V3.5H21.4178V5.135H15.7028V12.365ZM22.4094 14L26.8344 7.91V9.38L22.6194 3.5H24.8244L27.9594 7.85L27.0594 7.865L30.1644 3.5H32.2794L28.0944 9.275V7.865L32.5494 14H30.2994L26.9994 9.38H27.8844L24.6294 14H22.4094ZM35.7607 14V5.15H32.2807V3.5H41.1907V5.15H37.7107V14H35.7607ZM41.5418 10.61V9.05H45.6668V10.61H41.5418ZM47.8983 14V3.5H52.2183C53.1483 3.5 53.9433 3.65 54.6033 3.95C55.2733 4.25 55.7883 4.68 56.1483 5.24C56.5083 5.8 56.6883 6.465 56.6883 7.235C56.6883 8.005 56.5083 8.67 56.1483 9.23C55.7883 9.79 55.2733 10.22 54.6033 10.52C53.9433 10.82 53.1483 10.97 52.2183 10.97H48.9783L49.8483 10.055V14H47.8983ZM49.8483 10.265L48.9783 9.32H52.1283C52.9883 9.32 53.6333 9.14 54.0633 8.78C54.5033 8.41 54.7233 7.895 54.7233 7.235C54.7233 6.565 54.5033 6.05 54.0633 5.69C53.6333 5.33 52.9883 5.15 52.1283 5.15H48.9783L49.8483 4.19V10.265ZM56.6232 14L61.3482 3.5H63.2682L68.0082 14H65.9682L61.9032 4.535H62.6832L58.6332 14H56.6232ZM58.7982 11.57L59.3232 10.04H64.9932L65.5182 11.57H58.7982ZM72.5986 14.15C71.7786 14.15 70.9936 14.035 70.2436 13.805C69.4936 13.565 68.8986 13.26 68.4586 12.89L69.1336 11.375C69.5536 11.705 70.0736 11.98 70.6936 12.2C71.3136 12.42 71.9486 12.53 72.5986 12.53C73.1486 12.53 73.5936 12.47 73.9336 12.35C74.2736 12.23 74.5236 12.07 74.6836 11.87C74.8436 11.66 74.9236 11.425 74.9236 11.165C74.9236 10.845 74.8086 10.59 74.5786 10.4C74.3486 10.2 74.0486 10.045 73.6786 9.935C73.3186 9.815 72.9136 9.705 72.4636 9.605C72.0236 9.505 71.5786 9.39 71.1286 9.26C70.6886 9.12 70.2836 8.945 69.9136 8.735C69.5536 8.515 69.2586 8.225 69.0286 7.865C68.7986 7.505 68.6836 7.045 68.6836 6.485C68.6836 5.915 68.8336 5.395 69.1336 4.925C69.4436 4.445 69.9086 4.065 70.5286 3.785C71.1586 3.495 71.9536 3.35 72.9136 3.35C73.5436 3.35 74.1686 3.43 74.7886 3.59C75.4086 3.75 75.9486 3.98 76.4086 4.28L75.7936 5.795C75.3236 5.515 74.8386 5.31 74.3386 5.18C73.8386 5.04 73.3586 4.97 72.8986 4.97C72.3586 4.97 71.9186 5.035 71.5786 5.165C71.2486 5.295 71.0036 5.465 70.8436 5.675C70.6936 5.885 70.6186 6.125 70.6186 6.395C70.6186 6.715 70.7286 6.975 70.9486 7.175C71.1786 7.365 71.4736 7.515 71.8336 7.625C72.2036 7.735 72.6136 7.845 73.0636 7.955C73.5136 8.055 73.9586 8.17 74.3986 8.3C74.8486 8.43 75.2536 8.6 75.6136 8.81C75.9836 9.02 76.2786 9.305 76.4986 9.665C76.7286 10.025 76.8436 10.48 76.8436 11.03C76.8436 11.59 76.6886 12.11 76.3786 12.59C76.0786 13.06 75.6136 13.44 74.9836 13.73C74.3536 14.01 73.5586 14.15 72.5986 14.15ZM82.0322 14.15C81.2122 14.15 80.4272 14.035 79.6772 13.805C78.9272 13.565 78.3322 13.26 77.8922 12.89L78.5672 11.375C78.9872 11.705 79.5072 11.98 80.1272 12.2C80.7472 12.42 81.3822 12.53 82.0322 12.53C82.5822 12.53 83.0272 12.47 83.3672 12.35C83.7072 12.23 83.9572 12.07 84.1172 11.87C84.2772 11.66 84.3572 11.425 84.3572 11.165C84.3572 10.845 84.2422 10.59 84.0122 10.4C83.7822 10.2 83.4822 10.045 83.1122 9.935C82.7522 9.815 82.3472 9.705 81.8972 9.605C81.4572 9.505 81.0122 9.39 80.5622 9.26C80.1222 9.12 79.7172 8.945 79.3472 8.735C78.9872 8.515 78.6922 8.225 78.4622 7.865C78.2322 7.505 78.1172 7.045 78.1172 6.485C78.1172 5.915 78.2672 5.395 78.5672 4.925C78.8772 4.445 79.3422 4.065 79.9622 3.785C80.5922 3.495 81.3872 3.35 82.3472 3.35C82.9772 3.35 83.6022 3.43 84.2222 3.59C84.8422 3.75 85.3822 3.98 85.8422 4.28L85.2272 5.795C84.7572 5.515 84.2722 5.31 83.7722 5.18C83.2722 5.04 82.7922 4.97 82.3322 4.97C81.7922 4.97 81.3522 5.035 81.0122 5.165C80.6822 5.295 80.4372 5.465 80.2772 5.675C80.1272 5.885 80.0522 6.125 80.0522 6.395C80.0522 6.715 80.1622 6.975 80.3822 7.175C80.6122 7.365 80.9072 7.515 81.2672 7.625C81.6372 7.735 82.0472 7.845 82.4972 7.955C82.9472 8.055 83.3922 8.17 83.8322 8.3C84.2822 8.43 84.6872 8.6 85.0472 8.81C85.4172 9.02 85.7122 9.305 85.9322 9.665C86.1622 10.025 86.2772 10.48 86.2772 11.03C86.2772 11.59 86.1222 12.11 85.8122 12.59C85.5122 13.06 85.0472 13.44 84.4172 13.73C83.7872 14.01 82.9922 14.15 82.0322 14.15Z" fill="white"/>
<path d="M9.67487 31V21.9H13.3799C14.3505 21.9 15.1999 22.095 15.9279 22.485C16.6645 22.8663 17.2365 23.3993 17.6439 24.084C18.0512 24.7687 18.2549 25.5573 18.2549 26.45C18.2549 27.3427 18.0512 28.1313 17.6439 28.816C17.2365 29.5007 16.6645 30.038 15.9279 30.428C15.1999 30.8093 14.3505 31 13.3799 31H9.67487ZM10.6369 30.168H13.3279C14.1339 30.168 14.8315 30.012 15.4209 29.7C16.0189 29.3793 16.4825 28.9417 16.8119 28.387C17.1412 27.8237 17.3059 27.178 17.3059 26.45C17.3059 25.7133 17.1412 25.0677 16.8119 24.513C16.4825 23.9583 16.0189 23.525 15.4209 23.213C14.8315 22.8923 14.1339 22.732 13.3279 22.732H10.6369V30.168ZM18.8322 31L22.9922 21.9H23.9412L28.1012 31H27.0872L23.2652 22.459H23.6552L19.8332 31H18.8322ZM20.4702 28.569L20.7562 27.789H26.0472L26.3332 28.569H20.4702ZM30.9175 31V22.732H27.7195V21.9H35.0775V22.732H31.8795V31H30.9175ZM34.7013 31L38.8613 21.9H39.8103L43.9703 31H42.9563L39.1343 22.459H39.5243L35.7023 31H34.7013ZM36.3393 28.569L36.6253 27.789H41.9163L42.2023 28.569H36.3393ZM45.4757 31V21.9H49.4017C50.4157 21.9 51.2 22.1037 51.7547 22.511C52.318 22.9183 52.5997 23.4947 52.5997 24.24C52.5997 24.734 52.4827 25.15 52.2487 25.488C52.0233 25.826 51.7113 26.0817 51.3127 26.255C50.9227 26.4283 50.4937 26.515 50.0257 26.515L50.2467 26.203C50.8273 26.203 51.3257 26.294 51.7417 26.476C52.1663 26.6493 52.4957 26.9137 52.7297 27.269C52.9637 27.6157 53.0807 28.049 53.0807 28.569C53.0807 29.3403 52.7947 29.9383 52.2227 30.363C51.6593 30.7877 50.8057 31 49.6617 31H45.4757ZM46.4377 30.207H49.6487C50.446 30.207 51.057 30.0727 51.4817 29.804C51.9063 29.5267 52.1187 29.089 52.1187 28.491C52.1187 27.9017 51.9063 27.4727 51.4817 27.204C51.057 26.9267 50.446 26.788 49.6487 26.788H46.3337V25.995H49.3367C50.0647 25.995 50.628 25.8563 51.0267 25.579C51.434 25.3017 51.6377 24.89 51.6377 24.344C51.6377 23.7893 51.434 23.3777 51.0267 23.109C50.628 22.8317 50.0647 22.693 49.3367 22.693H46.4377V30.207ZM53.8204 31L57.9804 21.9H58.9294L63.0894 31H62.0754L58.2534 22.459H58.6434L54.8214 31H53.8204ZM55.4584 28.569L55.7444 27.789H61.0354L61.3214 28.569H55.4584ZM67.1038 31.078C66.4278 31.078 65.7778 30.9697 65.1538 30.753C64.5385 30.5277 64.0618 30.2417 63.7238 29.895L64.1008 29.154C64.4215 29.466 64.8505 29.7303 65.3878 29.947C65.9338 30.155 66.5058 30.259 67.1038 30.259C67.6758 30.259 68.1395 30.1897 68.4948 30.051C68.8588 29.9037 69.1231 29.7087 69.2878 29.466C69.4611 29.2233 69.5478 28.9547 69.5478 28.66C69.5478 28.3047 69.4438 28.0187 69.2358 27.802C69.0365 27.5853 68.7721 27.4163 68.4428 27.295C68.1135 27.165 67.7495 27.0523 67.3508 26.957C66.9521 26.8617 66.5535 26.762 66.1548 26.658C65.7561 26.5453 65.3878 26.398 65.0498 26.216C64.7205 26.034 64.4518 25.7957 64.2438 25.501C64.0445 25.1977 63.9448 24.8033 63.9448 24.318C63.9448 23.8673 64.0618 23.4557 64.2958 23.083C64.5385 22.7017 64.9068 22.3983 65.4008 22.173C65.8948 21.939 66.5275 21.822 67.2988 21.822C67.8101 21.822 68.3171 21.8957 68.8198 22.043C69.3225 22.1817 69.7558 22.3767 70.1198 22.628L69.7948 23.395C69.4048 23.135 68.9888 22.9443 68.5468 22.823C68.1135 22.7017 67.6931 22.641 67.2858 22.641C66.7398 22.641 66.2891 22.7147 65.9338 22.862C65.5785 23.0093 65.3141 23.2087 65.1408 23.46C64.9761 23.7027 64.8938 23.98 64.8938 24.292C64.8938 24.6473 64.9935 24.9333 65.1928 25.15C65.4008 25.3667 65.6695 25.5357 65.9988 25.657C66.3368 25.7783 66.7051 25.8867 67.1038 25.982C67.5025 26.0773 67.8968 26.1813 68.2868 26.294C68.6855 26.4067 69.0495 26.554 69.3788 26.736C69.7168 26.9093 69.9855 27.1433 70.1848 27.438C70.3928 27.7327 70.4968 28.1183 70.4968 28.595C70.4968 29.037 70.3755 29.4487 70.1328 29.83C69.8901 30.2027 69.5175 30.506 69.0148 30.74C68.5208 30.9653 67.8838 31.078 67.1038 31.078ZM73.4508 25.969H78.2608V26.788H73.4508V25.969ZM73.5548 30.168H79.0278V31H72.5928V21.9H78.8328V22.732H73.5548V30.168Z" fill="white"/>
</svg>
