<svg width="21" height="22" viewBox="0 0 21 22" fill="none" xmlns="http://www.w3.org/2000/svg">
<path d="M1 8C1.03 7.19467 1.12 6.378 1.27 5.55C1.38 4.934 1.436 4.626 1.626 4.415C1.816 4.204 2.286 4.055 3.225 3.755C5.535 3.019 7.487 1 10.498 1C13.509 1 15.465 3.02 17.775 3.755C18.714 4.055 19.183 4.204 19.373 4.415C19.563 4.625 19.619 4.934 19.73 5.55C19.88 6.378 19.97 7.19467 20 8M17.945 16C16.625 18.023 14.677 19.637 12.115 20.618C11.448 20.873 11.115 21 10.501 21C9.889 21 9.555 20.872 8.888 20.617C6.326 19.637 4.378 18.023 3.057 16M7 11L8 12M8 12L9 13M8 12L9 11M8 12L7 13M2 11L3 12M3 12L4 13M3 12L4 11M3 12L2 13M12 11L13 12M13 12L14 13M13 12L14 11M13 12L12 13M17 11L18 12M18 12L19 13M18 12L19 11M18 12L17 13" stroke="#A2A2A2" stroke-width="1.5" stroke-linecap="round" stroke-linejoin="round"/>
</svg>
