<svg width="22" height="18" viewBox="0 0 22 18" fill="none" xmlns="http://www.w3.org/2000/svg">
<path d="M9 13H10.5M13.5 13H17M1 6H21M1 9C1 5.463 1 3.694 2.053 2.513C2.22167 2.32367 2.40633 2.14967 2.607 1.991C3.862 1 5.741 1 9.5 1H12.5C16.259 1 18.138 1 19.392 1.99C19.5933 2.15 19.7783 2.32433 19.947 2.513C21 3.693 21 5.463 21 9C21 12.537 21 14.306 19.947 15.487C19.7774 15.6767 19.5917 15.8514 19.392 16.009C18.138 17 16.26 17 12.5 17H9.5C5.741 17 3.862 17 2.607 16.01C2.40756 15.852 2.2222 15.677 2.053 15.487C1 14.307 1 12.537 1 9Z" stroke="black" stroke-width="1.5" stroke-linecap="round" stroke-linejoin="round"/>
</svg>
