<svg width="39" height="43" viewBox="0 0 39 43" fill="none" xmlns="http://www.w3.org/2000/svg">
<path d="M8.95756 28.2899C6.20601 29.9318 -1.00831 33.2858 3.3864 37.4842C5.53125 39.5336 7.92111 41 10.9255 41H28.0726C31.0789 41 33.4688 39.5336 35.6136 37.4842C40.0083 33.2858 32.794 29.9318 30.0424 28.2899C26.8491 26.3981 23.208 25.4002 19.499 25.4002C15.79 25.4002 12.1509 26.3981 8.95756 28.2899ZM28.2515 10.775C28.2515 13.1023 27.3296 15.3342 25.6885 16.9799C24.0475 18.6255 21.8218 19.55 19.501 19.55C17.1802 19.55 14.9545 18.6255 13.3134 16.9799C11.6724 15.3342 10.7504 13.1023 10.7504 10.775C10.7504 8.44773 11.6724 6.21577 13.3134 4.57014C14.9545 2.92451 17.1802 2 19.501 2C21.8218 2 24.0475 2.92451 25.6885 4.57014C27.3296 6.21577 28.2515 8.44773 28.2515 10.775Z" stroke="white" stroke-width="3" stroke-linecap="round" stroke-linejoin="round"/>
</svg>
