<svg width="36" height="44" viewBox="0 0 36 44" fill="none" xmlns="http://www.w3.org/2000/svg">
<path opacity="0.5" d="M11.5709 11.2169C11.5709 9.47946 12.2611 7.81315 13.4897 6.58457C14.7182 5.35599 16.3845 4.66578 18.122 4.66578C19.8595 4.66578 21.5258 5.35599 22.7544 6.58457C23.983 7.81315 24.6732 9.47946 24.6732 11.2169V15.5844H29.0406V11.2169C29.0406 8.32114 27.8903 5.54395 25.8426 3.49632C23.795 1.44869 21.0178 0.29834 18.122 0.29834C15.2262 0.29834 12.449 1.44869 10.4014 3.49632C8.35378 5.54395 7.20343 8.32114 7.20343 11.2169V15.5844H11.5709V11.2169ZM18.122 35.2378C17.5429 35.2378 16.9874 35.0078 16.5779 34.5982C16.1684 34.1887 15.9383 33.6333 15.9383 33.0541V26.503C15.9383 25.9238 16.1684 25.3684 16.5779 24.9588C16.9874 24.5493 17.5429 24.3192 18.122 24.3192C18.7012 24.3192 19.2566 24.5493 19.6661 24.9588C20.0757 25.3684 20.3057 25.9238 20.3057 26.503V33.0541C20.3057 33.6333 20.0757 34.1887 19.6661 34.5982C19.2566 35.0078 18.7012 35.2378 18.122 35.2378Z" fill="white"/>
<path d="M29.0813 15.5844H7.24409C5.50661 15.5844 3.8403 16.2746 2.61172 17.5031C1.38314 18.7317 0.692932 20.398 0.692932 22.1355V37.4215C0.692932 39.159 1.38314 40.8253 2.61172 42.0539C3.8403 43.2825 5.50661 43.9727 7.24409 43.9727H29.0813C30.8187 43.9727 32.4851 43.2825 33.7136 42.0539C34.9422 40.8253 35.6324 39.159 35.6324 37.4215V22.1355C35.6324 20.398 34.9422 18.7317 33.7136 17.5031C32.4851 16.2746 30.8187 15.5844 29.0813 15.5844ZM20.3464 33.0541C20.3464 33.6333 20.1163 34.1887 19.7068 34.5982C19.2973 35.0077 18.7418 35.2378 18.1627 35.2378C17.5835 35.2378 17.0281 35.0077 16.6186 34.5982C16.209 34.1887 15.979 33.6333 15.979 33.0541V26.5029C15.979 25.9238 16.209 25.3683 16.6186 24.9588C17.0281 24.5493 17.5835 24.3192 18.1627 24.3192C18.7418 24.3192 19.2973 24.5493 19.7068 24.9588C20.1163 25.3683 20.3464 25.9238 20.3464 26.5029V33.0541Z" fill="white"/>
</svg>
