<svg width="8" height="10" viewBox="0 0 8 10" fill="none" xmlns="http://www.w3.org/2000/svg">
<path d="M2.89686 1.45557C3.436 1.15171 3.70514 1 4 1C4.29486 1 4.564 1.15171 5.10314 1.45557L5.85314 1.87814C6.41243 2.19314 6.69229 2.35086 6.84614 2.61443C7 2.878 7 3.19943 7 3.84229V4.58629C7 5.22914 7 5.55057 6.84571 5.81414C6.69229 6.07771 6.41286 6.23543 5.85314 6.55043L5.10314 6.973C4.564 7.27686 4.29486 7.42857 4 7.42857C3.70514 7.42857 3.436 7.27686 2.89686 6.973L2.14686 6.55043C1.58757 6.23543 1.30771 6.07771 1.15386 5.81414C1 5.55057 1 5.22914 1 4.58629V3.84229C1 3.19943 1 2.878 1.15429 2.61443C1.30771 2.35086 1.58714 2.19314 2.14686 1.87814L2.89686 1.45557Z" stroke="#008514" stroke-width="0.5" stroke-linecap="round" stroke-linejoin="round"/>
<path d="M2.71425 4.50014C2.71425 4.50014 3.03568 4.50014 3.35711 5.07143C3.35711 5.07143 4.37796 3.643 5.28568 3.35714M6.09268 6.57143L6.37982 7.94714C6.5641 8.83086 6.65668 9.27271 6.46682 9.48229C6.27739 9.69186 5.94825 9.51186 5.28996 9.15143L4.31539 8.61786C4.15982 8.533 4.08225 8.49014 3.99996 8.49014C3.91768 8.49014 3.8401 8.533 3.68453 8.61786L2.70996 9.15143C2.05168 9.51143 1.72253 9.69186 1.5331 9.48229C1.34368 9.27271 1.43582 8.83086 1.6201 7.94714L1.90725 6.57143" stroke="#008514" stroke-width="0.5" stroke-linecap="round" stroke-linejoin="round"/>
</svg>
