<svg width="18" height="19" viewBox="0 0 18 19" fill="none" xmlns="http://www.w3.org/2000/svg">
<path d="M2.8343 9.06735C2.77225 10.2539 2.84365 11.517 1.7837 12.3118C1.54001 12.4941 1.34226 12.7309 1.20621 13.0031C1.07015 13.2754 0.999539 13.5757 1 13.88C1 14.7275 1.6647 15.45 2.53 15.45H14.77C15.6353 15.45 16.3 14.7275 16.3 13.88C16.3 13.2629 16.0093 12.6815 15.5163 12.3118C14.4564 11.517 14.5278 10.2539 14.4657 9.06735C14.3892 7.57652 13.7431 6.17199 12.6608 5.14383C11.5786 4.11567 10.1428 3.54239 8.65 3.54239C7.15721 3.54239 5.72143 4.11567 4.63916 5.14383C3.55689 6.17199 2.91079 7.57652 2.8343 9.06735Z" stroke="#FF9D00" stroke-width="1.5" stroke-linecap="round" stroke-linejoin="round"/>
<path d="M11.2001 15.45C11.2001 16.1263 10.9314 16.7749 10.4532 17.2531C9.975 17.7313 9.3264 18 8.6501 18C7.9738 18 7.32519 17.7313 6.84698 17.2531C6.36876 16.7749 6.1001 16.1263 6.1001 15.45M7.3751 1.95625C7.3751 2.66005 7.9463 3.55 8.6501 3.55C9.3539 3.55 9.9251 2.66005 9.9251 1.95625C9.9251 1.25245 9.3539 1 8.6501 1C7.9463 1 7.3751 1.25245 7.3751 1.95625Z" stroke="#FF9D00" stroke-width="1.5" stroke-linecap="round" stroke-linejoin="round"/>
</svg>
