<svg width="9" height="9" viewBox="0 0 9 9" fill="none" xmlns="http://www.w3.org/2000/svg">
<path d="M5.60379 1.79926C5.19289 1.64666 5.01055 1.03626 4.54225 1.00126C4.51427 0.99958 4.48622 0.99958 4.45825 1.00126C3.9903 1.03626 3.80795 1.64666 3.39705 1.79926C2.96201 1.96061 2.36701 1.62986 1.99881 1.99806C1.64426 2.3526 1.95786 2.97035 1.79966 3.3963C1.63831 3.83205 0.962116 4.0123 1.00167 4.54184C1.03702 5.00979 1.64741 5.19249 1.79966 5.60339C1.95786 6.02934 1.64426 6.64708 1.99881 7.00163C2.36701 7.36983 2.96201 7.03908 3.39705 7.20043C3.8076 7.35303 3.9903 7.96343 4.4586 7.99843C4.4866 8.00053 4.51448 8.00053 4.54225 7.99843C5.01055 7.96343 5.19324 7.35303 5.60379 7.20043C6.02974 7.04258 6.64749 7.35618 7.00203 7.00163C7.38248 6.62118 7.01603 6.00414 7.21693 5.56454C7.40243 5.15994 8.03733 4.97024 7.99883 4.45819C7.96383 3.9899 7.35378 3.8072 7.20083 3.3963C7.03983 2.96125 7.37023 2.3666 7.00203 1.99806C6.63384 1.62951 6.03884 1.96061 5.60379 1.79926Z" stroke="#F0C029" stroke-width="0.6" stroke-linecap="round" stroke-linejoin="round"/>
<path d="M4.58511 5.89984V4.49985C4.58511 4.335 4.58511 4.2524 4.53401 4.20095C4.48256 4.14985 4.40031 4.14985 4.23511 4.14985M4.49761 3.09985H4.50111" stroke="#F0C029" stroke-width="0.6" stroke-linecap="round" stroke-linejoin="round"/>
</svg>
